ISO-10303-21;
HEADER;
/* Generated by software containing ST-Developer
 * from STEP Tools, Inc. (www.steptools.com) 
 */
/* OPTION: using custom schema-name function */

FILE_DESCRIPTION(
/* description */ (''),
/* implementation_level */ '2;1');

FILE_NAME(
/* name */ 'stock',
/* time_stamp */ '2025-11-24T11:50:56+02:00',
/* author */ (''),
/* organization */ (''),
/* preprocessor_version */ 'ST-DEVELOPER v16.5',
/* originating_system */ 'Rhino 7.13',
/* authorisation */ '');

FILE_SCHEMA (('CONFIG_CONTROL_DESIGN'));
ENDSEC;

DATA;
#10=SHAPE_REPRESENTATION_RELATIONSHIP('','',#543,#12);
#11=MANIFOLD_SOLID_BREP('brep_1',#13);
#12=ADVANCED_BREP_SHAPE_REPRESENTATION('brep_rep_0',(#11,#569),#542);
#13=CLOSED_SHELL('',(#16,#17,#18,#19,#20,#21,#22,#23,#24,#25,#26,#27,#28,
#29,#30,#31,#32,#33,#34,#35,#36,#37,#38,#39,#40,#41));
#14=FACE_BOUND('',#88,.T.);
#15=FACE_BOUND('',#92,.T.);
#16=ADVANCED_FACE('',(#42),#446,.T.);
#17=ADVANCED_FACE('',(#43),#447,.T.);
#18=ADVANCED_FACE('',(#44),#448,.T.);
#19=ADVANCED_FACE('',(#45),#434,.T.);
#20=ADVANCED_FACE('',(#46),#435,.T.);
#21=ADVANCED_FACE('',(#47),#449,.T.);
#22=ADVANCED_FACE('',(#48),#436,.T.);
#23=ADVANCED_FACE('',(#49),#437,.T.);
#24=ADVANCED_FACE('',(#50),#439,.T.);
#25=ADVANCED_FACE('',(#51),#450,.T.);
#26=ADVANCED_FACE('',(#52),#438,.T.);
#27=ADVANCED_FACE('',(#53),#440,.T.);
#28=ADVANCED_FACE('',(#54),#441,.T.);
#29=ADVANCED_FACE('',(#55),#451,.T.);
#30=ADVANCED_FACE('',(#56),#442,.T.);
#31=ADVANCED_FACE('',(#57),#443,.T.);
#32=ADVANCED_FACE('',(#58),#445,.T.);
#33=ADVANCED_FACE('',(#59),#452,.T.);
#34=ADVANCED_FACE('',(#60),#444,.T.);
#35=ADVANCED_FACE('',(#61,#14),#453,.T.);
#36=ADVANCED_FACE('',(#62),#456,.T.);
#37=ADVANCED_FACE('',(#63),#456,.T.);
#38=ADVANCED_FACE('',(#64,#15),#454,.T.);
#39=ADVANCED_FACE('',(#65),#455,.T.);
#40=ADVANCED_FACE('',(#66),#432,.F.);
#41=ADVANCED_FACE('',(#67),#433,.F.);
#42=FACE_OUTER_BOUND('',#68,.T.);
#43=FACE_OUTER_BOUND('',#69,.T.);
#44=FACE_OUTER_BOUND('',#70,.T.);
#45=FACE_OUTER_BOUND('',#71,.T.);
#46=FACE_OUTER_BOUND('',#72,.T.);
#47=FACE_OUTER_BOUND('',#73,.T.);
#48=FACE_OUTER_BOUND('',#74,.T.);
#49=FACE_OUTER_BOUND('',#75,.T.);
#50=FACE_OUTER_BOUND('',#76,.T.);
#51=FACE_OUTER_BOUND('',#77,.T.);
#52=FACE_OUTER_BOUND('',#78,.T.);
#53=FACE_OUTER_BOUND('',#79,.T.);
#54=FACE_OUTER_BOUND('',#80,.T.);
#55=FACE_OUTER_BOUND('',#81,.T.);
#56=FACE_OUTER_BOUND('',#82,.T.);
#57=FACE_OUTER_BOUND('',#83,.T.);
#58=FACE_OUTER_BOUND('',#84,.T.);
#59=FACE_OUTER_BOUND('',#85,.T.);
#60=FACE_OUTER_BOUND('',#86,.T.);
#61=FACE_OUTER_BOUND('',#87,.T.);
#62=FACE_OUTER_BOUND('',#89,.T.);
#63=FACE_OUTER_BOUND('',#90,.T.);
#64=FACE_OUTER_BOUND('',#91,.T.);
#65=FACE_OUTER_BOUND('',#93,.T.);
#66=FACE_OUTER_BOUND('',#94,.T.);
#67=FACE_OUTER_BOUND('',#95,.T.);
#68=EDGE_LOOP('',(#96,#97,#98,#99));
#69=EDGE_LOOP('',(#100,#101,#102,#103));
#70=EDGE_LOOP('',(#104,#105,#106,#107));
#71=EDGE_LOOP('',(#108,#109,#110,#111));
#72=EDGE_LOOP('',(#112,#113,#114,#115));
#73=EDGE_LOOP('',(#116,#117,#118,#119));
#74=EDGE_LOOP('',(#120,#121,#122,#123));
#75=EDGE_LOOP('',(#124,#125,#126,#127));
#76=EDGE_LOOP('',(#128,#129,#130,#131));
#77=EDGE_LOOP('',(#132,#133,#134,#135));
#78=EDGE_LOOP('',(#136,#137,#138,#139));
#79=EDGE_LOOP('',(#140,#141,#142,#143));
#80=EDGE_LOOP('',(#144,#145,#146,#147));
#81=EDGE_LOOP('',(#148,#149,#150,#151));
#82=EDGE_LOOP('',(#152,#153,#154,#155));
#83=EDGE_LOOP('',(#156,#157,#158,#159));
#84=EDGE_LOOP('',(#160,#161,#162,#163));
#85=EDGE_LOOP('',(#164,#165,#166,#167));
#86=EDGE_LOOP('',(#168,#169,#170,#171));
#87=EDGE_LOOP('',(#172,#173,#174,#175,#176,#177,#178,#179,#180,#181,#182,
#183,#184,#185,#186,#187,#188,#189,#190,#191,#192,#193));
#88=EDGE_LOOP('',(#194,#195));
#89=EDGE_LOOP('',(#196,#197,#198,#199));
#90=EDGE_LOOP('',(#200,#201,#202,#203));
#91=EDGE_LOOP('',(#204,#205,#206,#207,#208,#209,#210,#211,#212,#213,#214,
#215,#216,#217,#218,#219,#220,#221,#222,#223,#224,#225));
#92=EDGE_LOOP('',(#226,#227));
#93=EDGE_LOOP('',(#228,#229,#230,#231));
#94=EDGE_LOOP('',(#232,#233,#234,#235));
#95=EDGE_LOOP('',(#236,#237,#238,#239));
#96=ORIENTED_EDGE('',*,*,#261,.T.);
#97=ORIENTED_EDGE('',*,*,#240,.T.);
#98=ORIENTED_EDGE('',*,*,#241,.T.);
#99=ORIENTED_EDGE('',*,*,#242,.T.);
#100=ORIENTED_EDGE('',*,*,#250,.T.);
#101=ORIENTED_EDGE('',*,*,#257,.T.);
#102=ORIENTED_EDGE('',*,*,#242,.F.);
#103=ORIENTED_EDGE('',*,*,#243,.T.);
#104=ORIENTED_EDGE('',*,*,#265,.T.);
#105=ORIENTED_EDGE('',*,*,#272,.T.);
#106=ORIENTED_EDGE('',*,*,#240,.F.);
#107=ORIENTED_EDGE('',*,*,#263,.T.);
#108=ORIENTED_EDGE('',*,*,#249,.F.);
#109=ORIENTED_EDGE('',*,*,#254,.T.);
#110=ORIENTED_EDGE('',*,*,#259,.T.);
#111=ORIENTED_EDGE('',*,*,#251,.F.);
#112=ORIENTED_EDGE('',*,*,#260,.F.);
#113=ORIENTED_EDGE('',*,*,#255,.T.);
#114=ORIENTED_EDGE('',*,*,#250,.F.);
#115=ORIENTED_EDGE('',*,*,#252,.F.);
#116=ORIENTED_EDGE('',*,*,#282,.T.);
#117=ORIENTED_EDGE('',*,*,#284,.T.);
#118=ORIENTED_EDGE('',*,*,#244,.T.);
#119=ORIENTED_EDGE('',*,*,#262,.T.);
#120=ORIENTED_EDGE('',*,*,#256,.T.);
#121=ORIENTED_EDGE('',*,*,#260,.T.);
#122=ORIENTED_EDGE('',*,*,#253,.F.);
#123=ORIENTED_EDGE('',*,*,#259,.F.);
#124=ORIENTED_EDGE('',*,*,#274,.F.);
#125=ORIENTED_EDGE('',*,*,#269,.T.);
#126=ORIENTED_EDGE('',*,*,#264,.F.);
#127=ORIENTED_EDGE('',*,*,#266,.F.);
#128=ORIENTED_EDGE('',*,*,#271,.T.);
#129=ORIENTED_EDGE('',*,*,#275,.T.);
#130=ORIENTED_EDGE('',*,*,#268,.F.);
#131=ORIENTED_EDGE('',*,*,#265,.F.);
#132=ORIENTED_EDGE('',*,*,#294,.T.);
#133=ORIENTED_EDGE('',*,*,#297,.T.);
#134=ORIENTED_EDGE('',*,*,#246,.T.);
#135=ORIENTED_EDGE('',*,*,#245,.T.);
#136=ORIENTED_EDGE('',*,*,#275,.F.);
#137=ORIENTED_EDGE('',*,*,#270,.T.);
#138=ORIENTED_EDGE('',*,*,#274,.T.);
#139=ORIENTED_EDGE('',*,*,#267,.F.);
#140=ORIENTED_EDGE('',*,*,#279,.T.);
#141=ORIENTED_EDGE('',*,*,#286,.T.);
#142=ORIENTED_EDGE('',*,*,#276,.F.);
#143=ORIENTED_EDGE('',*,*,#282,.F.);
#144=ORIENTED_EDGE('',*,*,#287,.F.);
#145=ORIENTED_EDGE('',*,*,#280,.T.);
#146=ORIENTED_EDGE('',*,*,#283,.F.);
#147=ORIENTED_EDGE('',*,*,#277,.F.);
#148=ORIENTED_EDGE('',*,*,#283,.T.);
#149=ORIENTED_EDGE('',*,*,#285,.T.);
#150=ORIENTED_EDGE('',*,*,#249,.T.);
#151=ORIENTED_EDGE('',*,*,#258,.T.);
#152=ORIENTED_EDGE('',*,*,#286,.F.);
#153=ORIENTED_EDGE('',*,*,#281,.T.);
#154=ORIENTED_EDGE('',*,*,#287,.T.);
#155=ORIENTED_EDGE('',*,*,#278,.F.);
#156=ORIENTED_EDGE('',*,*,#298,.F.);
#157=ORIENTED_EDGE('',*,*,#291,.T.);
#158=ORIENTED_EDGE('',*,*,#294,.F.);
#159=ORIENTED_EDGE('',*,*,#288,.F.);
#160=ORIENTED_EDGE('',*,*,#293,.T.);
#161=ORIENTED_EDGE('',*,*,#299,.T.);
#162=ORIENTED_EDGE('',*,*,#290,.F.);
#163=ORIENTED_EDGE('',*,*,#295,.F.);
#164=ORIENTED_EDGE('',*,*,#295,.T.);
#165=ORIENTED_EDGE('',*,*,#296,.T.);
#166=ORIENTED_EDGE('',*,*,#264,.T.);
#167=ORIENTED_EDGE('',*,*,#273,.T.);
#168=ORIENTED_EDGE('',*,*,#299,.F.);
#169=ORIENTED_EDGE('',*,*,#292,.T.);
#170=ORIENTED_EDGE('',*,*,#298,.T.);
#171=ORIENTED_EDGE('',*,*,#289,.F.);
#172=ORIENTED_EDGE('',*,*,#304,.T.);
#173=ORIENTED_EDGE('',*,*,#284,.F.);
#174=ORIENTED_EDGE('',*,*,#276,.T.);
#175=ORIENTED_EDGE('',*,*,#278,.T.);
#176=ORIENTED_EDGE('',*,*,#277,.T.);
#177=ORIENTED_EDGE('',*,*,#258,.F.);
#178=ORIENTED_EDGE('',*,*,#251,.T.);
#179=ORIENTED_EDGE('',*,*,#253,.T.);
#180=ORIENTED_EDGE('',*,*,#252,.T.);
#181=ORIENTED_EDGE('',*,*,#243,.F.);
#182=ORIENTED_EDGE('',*,*,#241,.F.);
#183=ORIENTED_EDGE('',*,*,#272,.F.);
#184=ORIENTED_EDGE('',*,*,#268,.T.);
#185=ORIENTED_EDGE('',*,*,#267,.T.);
#186=ORIENTED_EDGE('',*,*,#266,.T.);
#187=ORIENTED_EDGE('',*,*,#296,.F.);
#188=ORIENTED_EDGE('',*,*,#290,.T.);
#189=ORIENTED_EDGE('',*,*,#289,.T.);
#190=ORIENTED_EDGE('',*,*,#288,.T.);
#191=ORIENTED_EDGE('',*,*,#245,.F.);
#192=ORIENTED_EDGE('',*,*,#248,.T.);
#193=ORIENTED_EDGE('',*,*,#305,.F.);
#194=ORIENTED_EDGE('',*,*,#306,.T.);
#195=ORIENTED_EDGE('',*,*,#310,.T.);
#196=ORIENTED_EDGE('',*,*,#248,.F.);
#197=ORIENTED_EDGE('',*,*,#246,.F.);
#198=ORIENTED_EDGE('',*,*,#247,.T.);
#199=ORIENTED_EDGE('',*,*,#301,.F.);
#200=ORIENTED_EDGE('',*,*,#303,.T.);
#201=ORIENTED_EDGE('',*,*,#244,.F.);
#202=ORIENTED_EDGE('',*,*,#304,.F.);
#203=ORIENTED_EDGE('',*,*,#300,.F.);
#204=ORIENTED_EDGE('',*,*,#302,.T.);
#205=ORIENTED_EDGE('',*,*,#247,.F.);
#206=ORIENTED_EDGE('',*,*,#297,.F.);
#207=ORIENTED_EDGE('',*,*,#291,.F.);
#208=ORIENTED_EDGE('',*,*,#292,.F.);
#209=ORIENTED_EDGE('',*,*,#293,.F.);
#210=ORIENTED_EDGE('',*,*,#273,.F.);
#211=ORIENTED_EDGE('',*,*,#269,.F.);
#212=ORIENTED_EDGE('',*,*,#270,.F.);
#213=ORIENTED_EDGE('',*,*,#271,.F.);
#214=ORIENTED_EDGE('',*,*,#263,.F.);
#215=ORIENTED_EDGE('',*,*,#261,.F.);
#216=ORIENTED_EDGE('',*,*,#257,.F.);
#217=ORIENTED_EDGE('',*,*,#255,.F.);
#218=ORIENTED_EDGE('',*,*,#256,.F.);
#219=ORIENTED_EDGE('',*,*,#254,.F.);
#220=ORIENTED_EDGE('',*,*,#285,.F.);
#221=ORIENTED_EDGE('',*,*,#280,.F.);
#222=ORIENTED_EDGE('',*,*,#281,.F.);
#223=ORIENTED_EDGE('',*,*,#279,.F.);
#224=ORIENTED_EDGE('',*,*,#262,.F.);
#225=ORIENTED_EDGE('',*,*,#303,.F.);
#226=ORIENTED_EDGE('',*,*,#311,.F.);
#227=ORIENTED_EDGE('',*,*,#307,.F.);
#228=ORIENTED_EDGE('',*,*,#302,.F.);
#229=ORIENTED_EDGE('',*,*,#300,.T.);
#230=ORIENTED_EDGE('',*,*,#305,.T.);
#231=ORIENTED_EDGE('',*,*,#301,.T.);
#232=ORIENTED_EDGE('',*,*,#311,.T.);
#233=ORIENTED_EDGE('',*,*,#308,.T.);
#234=ORIENTED_EDGE('',*,*,#310,.F.);
#235=ORIENTED_EDGE('',*,*,#309,.F.);
#236=ORIENTED_EDGE('',*,*,#309,.T.);
#237=ORIENTED_EDGE('',*,*,#306,.F.);
#238=ORIENTED_EDGE('',*,*,#308,.F.);
#239=ORIENTED_EDGE('',*,*,#307,.T.);
#240=EDGE_CURVE('',#385,#386,#325,.T.);
#241=EDGE_CURVE('',#386,#387,#326,.T.);
#242=EDGE_CURVE('',#387,#384,#327,.T.);
#243=EDGE_CURVE('',#387,#394,#328,.T.);
#244=EDGE_CURVE('',#389,#388,#312,.T.);
#245=EDGE_CURVE('',#390,#417,#329,.T.);
#246=EDGE_CURVE('',#391,#390,#313,.T.);
#247=EDGE_CURVE('',#391,#427,#314,.T.);
#248=EDGE_CURVE('',#390,#425,#315,.T.);
#249=EDGE_CURVE('',#392,#393,#330,.T.);
#250=EDGE_CURVE('',#394,#395,#331,.T.);
#251=EDGE_CURVE('',#393,#396,#332,.T.);
#252=EDGE_CURVE('',#397,#394,#333,.T.);
#253=EDGE_CURVE('',#396,#397,#334,.T.);
#254=EDGE_CURVE('',#392,#398,#335,.T.);
#255=EDGE_CURVE('',#399,#395,#336,.T.);
#256=EDGE_CURVE('',#398,#399,#337,.T.);
#257=EDGE_CURVE('',#395,#384,#338,.T.);
#258=EDGE_CURVE('',#393,#411,#339,.T.);
#259=EDGE_CURVE('',#398,#396,#340,.T.);
#260=EDGE_CURVE('',#399,#397,#341,.T.);
#261=EDGE_CURVE('',#384,#385,#342,.T.);
#262=EDGE_CURVE('',#388,#412,#343,.T.);
#263=EDGE_CURVE('',#385,#402,#344,.T.);
#264=EDGE_CURVE('',#400,#401,#345,.T.);
#265=EDGE_CURVE('',#402,#403,#346,.T.);
#266=EDGE_CURVE('',#404,#400,#347,.T.);
#267=EDGE_CURVE('',#405,#404,#348,.T.);
#268=EDGE_CURVE('',#403,#405,#349,.T.);
#269=EDGE_CURVE('',#406,#401,#350,.T.);
#270=EDGE_CURVE('',#407,#406,#351,.T.);
#271=EDGE_CURVE('',#402,#407,#352,.T.);
#272=EDGE_CURVE('',#403,#386,#353,.T.);
#273=EDGE_CURVE('',#401,#423,#354,.T.);
#274=EDGE_CURVE('',#406,#404,#355,.T.);
#275=EDGE_CURVE('',#407,#405,#356,.T.);
#276=EDGE_CURVE('',#408,#409,#357,.T.);
#277=EDGE_CURVE('',#410,#411,#358,.T.);
#278=EDGE_CURVE('',#409,#410,#359,.T.);
#279=EDGE_CURVE('',#412,#413,#360,.T.);
#280=EDGE_CURVE('',#414,#415,#361,.T.);
#281=EDGE_CURVE('',#413,#414,#362,.T.);
#282=EDGE_CURVE('',#412,#408,#363,.T.);
#283=EDGE_CURVE('',#411,#415,#364,.T.);
#284=EDGE_CURVE('',#408,#389,#365,.T.);
#285=EDGE_CURVE('',#415,#392,#366,.T.);
#286=EDGE_CURVE('',#413,#409,#367,.T.);
#287=EDGE_CURVE('',#414,#410,#368,.T.);
#288=EDGE_CURVE('',#416,#417,#369,.T.);
#289=EDGE_CURVE('',#418,#416,#370,.T.);
#290=EDGE_CURVE('',#419,#418,#371,.T.);
#291=EDGE_CURVE('',#420,#421,#372,.T.);
#292=EDGE_CURVE('',#422,#420,#373,.T.);
#293=EDGE_CURVE('',#423,#422,#374,.T.);
#294=EDGE_CURVE('',#417,#421,#375,.T.);
#295=EDGE_CURVE('',#423,#419,#376,.T.);
#296=EDGE_CURVE('',#419,#400,#377,.T.);
#297=EDGE_CURVE('',#421,#391,#378,.T.);
#298=EDGE_CURVE('',#420,#416,#379,.T.);
#299=EDGE_CURVE('',#422,#418,#380,.T.);
#300=EDGE_CURVE('',#426,#424,#316,.T.);
#301=EDGE_CURVE('',#425,#427,#381,.T.);
#302=EDGE_CURVE('',#426,#427,#382,.T.);
#303=EDGE_CURVE('',#426,#388,#317,.T.);
#304=EDGE_CURVE('',#424,#389,#318,.T.);
#305=EDGE_CURVE('',#424,#425,#383,.T.);
#306=EDGE_CURVE('',#428,#431,#319,.T.);
#307=EDGE_CURVE('',#429,#430,#320,.T.);
#308=EDGE_CURVE('',#429,#428,#321,.T.);
#309=EDGE_CURVE('',#430,#431,#322,.T.);
#310=EDGE_CURVE('',#431,#428,#323,.T.);
#311=EDGE_CURVE('',#430,#429,#324,.T.);
#312=(
BOUNDED_CURVE()
B_SPLINE_CURVE(1,(#689,#690),.UNSPECIFIED.,.F.,.F.)
B_SPLINE_CURVE_WITH_KNOTS((2,2),(0.,5.0063529614884),.UNSPECIFIED.)
CURVE()
GEOMETRIC_REPRESENTATION_ITEM()
RATIONAL_B_SPLINE_CURVE((1.,1.))
REPRESENTATION_ITEM('')
);
#313=(
BOUNDED_CURVE()
B_SPLINE_CURVE(1,(#693,#694),.UNSPECIFIED.,.F.,.F.)
B_SPLINE_CURVE_WITH_KNOTS((2,2),(0.,5.0063529614884),.UNSPECIFIED.)
CURVE()
GEOMETRIC_REPRESENTATION_ITEM()
RATIONAL_B_SPLINE_CURVE((1.,1.))
REPRESENTATION_ITEM('')
);
#314=(
BOUNDED_CURVE()
B_SPLINE_CURVE(2,(#695,#696,#697),.UNSPECIFIED.,.F.,.F.)
B_SPLINE_CURVE_WITH_KNOTS((3,3),(0.,5.8248939529704),.UNSPECIFIED.)
CURVE()
GEOMETRIC_REPRESENTATION_ITEM()
RATIONAL_B_SPLINE_CURVE((1.,0.951376220681357,1.))
REPRESENTATION_ITEM('')
);
#315=(
BOUNDED_CURVE()
B_SPLINE_CURVE(2,(#698,#699,#700),.UNSPECIFIED.,.F.,.F.)
B_SPLINE_CURVE_WITH_KNOTS((3,3),(-27.7340894775797,-21.9091955246094),
 .UNSPECIFIED.)
CURVE()
GEOMETRIC_REPRESENTATION_ITEM()
RATIONAL_B_SPLINE_CURVE((1.,0.951376220681357,1.))
REPRESENTATION_ITEM('')
);
#316=(
BOUNDED_CURVE()
B_SPLINE_CURVE(1,(#808,#809),.UNSPECIFIED.,.F.,.F.)
B_SPLINE_CURVE_WITH_KNOTS((2,2),(-8.4267944384903,-3.42044147700188),
 .UNSPECIFIED.)
CURVE()
GEOMETRIC_REPRESENTATION_ITEM()
RATIONAL_B_SPLINE_CURVE((1.,1.))
REPRESENTATION_ITEM('')
);
#317=(
BOUNDED_CURVE()
B_SPLINE_CURVE(2,(#814,#815,#816),.UNSPECIFIED.,.F.,.F.)
B_SPLINE_CURVE_WITH_KNOTS((3,3),(21.4718334441536,27.7340894775797),
 .UNSPECIFIED.)
CURVE()
GEOMETRIC_REPRESENTATION_ITEM()
RATIONAL_B_SPLINE_CURVE((1.,0.945141291262493,1.))
REPRESENTATION_ITEM('')
);
#318=(
BOUNDED_CURVE()
B_SPLINE_CURVE(2,(#817,#818,#819),.UNSPECIFIED.,.F.,.F.)
B_SPLINE_CURVE_WITH_KNOTS((3,3),(-6.26225603342608,0.),.UNSPECIFIED.)
CURVE()
GEOMETRIC_REPRESENTATION_ITEM()
RATIONAL_B_SPLINE_CURVE((1.,0.945141291262493,1.))
REPRESENTATION_ITEM('')
);
#319=(
BOUNDED_CURVE()
B_SPLINE_CURVE(2,(#822,#823,#824,#825,#826),.UNSPECIFIED.,.F.,.F.)
B_SPLINE_CURVE_WITH_KNOTS((3,2,3),(-9.42477796076938,-7.06858347057703,
-4.71238898038469),.UNSPECIFIED.)
CURVE()
GEOMETRIC_REPRESENTATION_ITEM()
RATIONAL_B_SPLINE_CURVE((1.,0.707106781186548,1.,0.707106781186548,1.))
REPRESENTATION_ITEM('')
);
#320=(
BOUNDED_CURVE()
B_SPLINE_CURVE(2,(#827,#828,#829,#830,#831),.UNSPECIFIED.,.F.,.F.)
B_SPLINE_CURVE_WITH_KNOTS((3,2,3),(-9.42477796076938,-7.06858347057703,
-4.71238898038469),.UNSPECIFIED.)
CURVE()
GEOMETRIC_REPRESENTATION_ITEM()
RATIONAL_B_SPLINE_CURVE((1.,0.707106781186548,1.,0.707106781186548,1.))
REPRESENTATION_ITEM('')
);
#321=(
BOUNDED_CURVE()
B_SPLINE_CURVE(1,(#832,#833),.UNSPECIFIED.,.F.,.F.)
B_SPLINE_CURVE_WITH_KNOTS((2,2),(3.46212111498115,8.46847407646956),
 .UNSPECIFIED.)
CURVE()
GEOMETRIC_REPRESENTATION_ITEM()
RATIONAL_B_SPLINE_CURVE((1.,1.))
REPRESENTATION_ITEM('')
);
#322=(
BOUNDED_CURVE()
B_SPLINE_CURVE(1,(#834,#835),.UNSPECIFIED.,.F.,.F.)
B_SPLINE_CURVE_WITH_KNOTS((2,2),(3.46212111498116,8.46847407646956),
 .UNSPECIFIED.)
CURVE()
GEOMETRIC_REPRESENTATION_ITEM()
RATIONAL_B_SPLINE_CURVE((1.,1.))
REPRESENTATION_ITEM('')
);
#323=(
BOUNDED_CURVE()
B_SPLINE_CURVE(2,(#836,#837,#838,#839,#840),.UNSPECIFIED.,.F.,.F.)
B_SPLINE_CURVE_WITH_KNOTS((3,2,3),(-4.71238898038469,-2.35619449019234,
0.),.UNSPECIFIED.)
CURVE()
GEOMETRIC_REPRESENTATION_ITEM()
RATIONAL_B_SPLINE_CURVE((1.,0.707106781186548,1.,0.707106781186548,1.))
REPRESENTATION_ITEM('')
);
#324=(
BOUNDED_CURVE()
B_SPLINE_CURVE(2,(#841,#842,#843,#844,#845),.UNSPECIFIED.,.F.,.F.)
B_SPLINE_CURVE_WITH_KNOTS((3,2,3),(-4.71238898038469,-2.35619449019234,
0.),.UNSPECIFIED.)
CURVE()
GEOMETRIC_REPRESENTATION_ITEM()
RATIONAL_B_SPLINE_CURVE((1.,0.707106781186548,1.,0.707106781186548,1.))
REPRESENTATION_ITEM('')
);
#325=B_SPLINE_CURVE_WITH_KNOTS('',1,(#681,#682),.UNSPECIFIED.,.F.,.F.,(2,
2),(0.,5.0063529614884),.UNSPECIFIED.);
#326=B_SPLINE_CURVE_WITH_KNOTS('',1,(#683,#684),.UNSPECIFIED.,.F.,.F.,(2,
2),(0.,10.103202669241),.UNSPECIFIED.);
#327=B_SPLINE_CURVE_WITH_KNOTS('',1,(#685,#686),.UNSPECIFIED.,.F.,.F.,(2,
2),(0.,5.0063529614884),.UNSPECIFIED.);
#328=B_SPLINE_CURVE_WITH_KNOTS('',1,(#687,#688),.UNSPECIFIED.,.F.,.F.,(2,
2),(0.,3.00076659496645),.UNSPECIFIED.);
#329=B_SPLINE_CURVE_WITH_KNOTS('',1,(#691,#692),.UNSPECIFIED.,.F.,.F.,(2,
2),(0.,71.2343224022843),.UNSPECIFIED.);
#330=B_SPLINE_CURVE_WITH_KNOTS('',1,(#701,#702),.UNSPECIFIED.,.F.,.F.,(2,
2),(15.3895319416613,20.3958849031497),.UNSPECIFIED.);
#331=B_SPLINE_CURVE_WITH_KNOTS('',1,(#703,#704),.UNSPECIFIED.,.F.,.F.,(2,
2),(-20.3958849031497,-15.3895319416613),.UNSPECIFIED.);
#332=B_SPLINE_CURVE_WITH_KNOTS('',1,(#705,#706),.UNSPECIFIED.,.F.,.F.,(2,
2),(-2.17841048589222,0.),.UNSPECIFIED.);
#333=B_SPLINE_CURVE_WITH_KNOTS('',1,(#707,#708),.UNSPECIFIED.,.F.,.F.,(2,
2),(-10.,-8.01746140733815),.UNSPECIFIED.);
#334=B_SPLINE_CURVE_WITH_KNOTS('',1,(#709,#710),.UNSPECIFIED.,.F.,.F.,(2,
2),(-14.,-10.),.UNSPECIFIED.);
#335=B_SPLINE_CURVE_WITH_KNOTS('',1,(#711,#712),.UNSPECIFIED.,.F.,.F.,(2,
2),(-0.342637495251681,1.83577299064052),.UNSPECIFIED.);
#336=B_SPLINE_CURVE_WITH_KNOTS('',1,(#713,#714),.UNSPECIFIED.,.F.,.F.,(2,
2),(-1.83577299064051,0.146765602021341),.UNSPECIFIED.);
#337=B_SPLINE_CURVE_WITH_KNOTS('',1,(#715,#716),.UNSPECIFIED.,.F.,.F.,(2,
2),(-6.99717533947045,-2.99717533947044),.UNSPECIFIED.);
#338=B_SPLINE_CURVE_WITH_KNOTS('',1,(#717,#718),.UNSPECIFIED.,.F.,.F.,(2,
2),(10.2340722162597,13.2348388112261),.UNSPECIFIED.);
#339=B_SPLINE_CURVE_WITH_KNOTS('',1,(#719,#720),.UNSPECIFIED.,.F.,.F.,(2,
2),(7.00555944835571,18.0187397951761),.UNSPECIFIED.);
#340=B_SPLINE_CURVE_WITH_KNOTS('',1,(#721,#722),.UNSPECIFIED.,.F.,.F.,(2,
2),(15.3895319416613,20.3958849031497),.UNSPECIFIED.);
#341=B_SPLINE_CURVE_WITH_KNOTS('',1,(#723,#724),.UNSPECIFIED.,.F.,.F.,(2,
2),(15.3895319416613,20.3958849031497),.UNSPECIFIED.);
#342=B_SPLINE_CURVE_WITH_KNOTS('',1,(#725,#726,#727,#728),.UNSPECIFIED.,
 .F.,.F.,(2,1,1,2),(0.,2.54973014763199,7.54973014763199,10.103202669241),
 .UNSPECIFIED.);
#343=B_SPLINE_CURVE_WITH_KNOTS('',1,(#729,#730),.UNSPECIFIED.,.F.,.F.,(2,
2),(0.,71.025543641532),.UNSPECIFIED.);
#344=B_SPLINE_CURVE_WITH_KNOTS('',1,(#731,#732),.UNSPECIFIED.,.F.,.F.,(2,
2),(0.,2.99717533947048),.UNSPECIFIED.);
#345=B_SPLINE_CURVE_WITH_KNOTS('',1,(#733,#734),.UNSPECIFIED.,.F.,.F.,(2,
2),(-20.3958849031497,-15.3895319416613),.UNSPECIFIED.);
#346=B_SPLINE_CURVE_WITH_KNOTS('',1,(#735,#736),.UNSPECIFIED.,.F.,.F.,(2,
2),(5.55111512312578E-17,5.0063529614884),.UNSPECIFIED.);
#347=B_SPLINE_CURVE_WITH_KNOTS('',1,(#737,#738),.UNSPECIFIED.,.F.,.F.,(2,
2),(-3.,-0.988976543231005),.UNSPECIFIED.);
#348=B_SPLINE_CURVE_WITH_KNOTS('',1,(#739,#740),.UNSPECIFIED.,.F.,.F.,(2,
2),(-7.,-3.),.UNSPECIFIED.);
#349=B_SPLINE_CURVE_WITH_KNOTS('',1,(#741,#742),.UNSPECIFIED.,.F.,.F.,(2,
2),(-9.01102345676899,-7.),.UNSPECIFIED.);
#350=B_SPLINE_CURVE_WITH_KNOTS('',1,(#743,#744),.UNSPECIFIED.,.F.,.F.,(2,
2),(8.092179212472,10.103202669241),.UNSPECIFIED.);
#351=B_SPLINE_CURVE_WITH_KNOTS('',1,(#745,#746),.UNSPECIFIED.,.F.,.F.,(2,
2),(2.99717533947045,6.99717533947044),.UNSPECIFIED.);
#352=B_SPLINE_CURVE_WITH_KNOTS('',1,(#747,#748),.UNSPECIFIED.,.F.,.F.,(2,
2),(-10.103202669241,-8.092179212472),.UNSPECIFIED.);
#353=B_SPLINE_CURVE_WITH_KNOTS('',1,(#749,#750),.UNSPECIFIED.,.F.,.F.,(2,
2),(90.2343224022842,93.2314977417547),.UNSPECIFIED.);
#354=B_SPLINE_CURVE_WITH_KNOTS('',1,(#751,#752,#753,#754),.UNSPECIFIED.,
 .F.,.F.,(2,1,1,2),(6.99717533947045,9.61741940561302,13.234838811226,17.9971753394704),
 .UNSPECIFIED.);
#355=B_SPLINE_CURVE_WITH_KNOTS('',1,(#755,#756),.UNSPECIFIED.,.F.,.F.,(2,
2),(15.3895319416613,20.3958849031497),.UNSPECIFIED.);
#356=B_SPLINE_CURVE_WITH_KNOTS('',1,(#757,#758),.UNSPECIFIED.,.F.,.F.,(2,
2),(15.3895319416613,20.3958849031497),.UNSPECIFIED.);
#357=B_SPLINE_CURVE_WITH_KNOTS('',1,(#759,#760),.UNSPECIFIED.,.F.,.F.,(2,
2),(-2.91293008550602,0.),.UNSPECIFIED.);
#358=B_SPLINE_CURVE_WITH_KNOTS('',1,(#761,#762),.UNSPECIFIED.,.F.,.F.,(2,
2),(-10.,-7.28294180772433),.UNSPECIFIED.);
#359=B_SPLINE_CURVE_WITH_KNOTS('',1,(#763,#764),.UNSPECIFIED.,.F.,.F.,(2,
2),(-14.,-10.),.UNSPECIFIED.);
#360=B_SPLINE_CURVE_WITH_KNOTS('',1,(#765,#766),.UNSPECIFIED.,.F.,.F.,(2,
2),(-2.91293008550599,0.),.UNSPECIFIED.);
#361=B_SPLINE_CURVE_WITH_KNOTS('',1,(#767,#768),.UNSPECIFIED.,.F.,.F.,(2,
2),(-10.,-7.28294180772437),.UNSPECIFIED.);
#362=B_SPLINE_CURVE_WITH_KNOTS('',1,(#769,#770),.UNSPECIFIED.,.F.,.F.,(2,
2),(-21.9971753394704,-17.9971753394704),.UNSPECIFIED.);
#363=B_SPLINE_CURVE_WITH_KNOTS('',1,(#771,#772),.UNSPECIFIED.,.F.,.F.,(2,
2),(15.3895319416613,20.3958849031497),.UNSPECIFIED.);
#364=B_SPLINE_CURVE_WITH_KNOTS('',1,(#773,#774),.UNSPECIFIED.,.F.,.F.,(2,
2),(-20.3958849031497,-15.3895319416613),.UNSPECIFIED.);
#365=B_SPLINE_CURVE_WITH_KNOTS('',1,(#775,#776),.UNSPECIFIED.,.F.,.F.,(2,
2),(22.0235326485654,93.0490762900973),.UNSPECIFIED.);
#366=B_SPLINE_CURVE_WITH_KNOTS('',1,(#777,#778,#779),.UNSPECIFIED.,.F.,
 .F.,(2,1,2),(75.0303364949212,79.8142374788712,86.0435168417416),
 .UNSPECIFIED.);
#367=B_SPLINE_CURVE_WITH_KNOTS('',1,(#780,#781),.UNSPECIFIED.,.F.,.F.,(2,
2),(15.3895319416613,20.3958849031497),.UNSPECIFIED.);
#368=B_SPLINE_CURVE_WITH_KNOTS('',1,(#782,#783),.UNSPECIFIED.,.F.,.F.,(2,
2),(15.3895319416613,20.3958849031497),.UNSPECIFIED.);
#369=B_SPLINE_CURVE_WITH_KNOTS('',1,(#784,#785),.UNSPECIFIED.,.F.,.F.,(2,
2),(-3.,-0.988976543231005),.UNSPECIFIED.);
#370=B_SPLINE_CURVE_WITH_KNOTS('',1,(#786,#787),.UNSPECIFIED.,.F.,.F.,(2,
2),(-7.,-3.),.UNSPECIFIED.);
#371=B_SPLINE_CURVE_WITH_KNOTS('',1,(#788,#789),.UNSPECIFIED.,.F.,.F.,(2,
2),(-9.01102345676899,-7.),.UNSPECIFIED.);
#372=B_SPLINE_CURVE_WITH_KNOTS('',1,(#790,#791),.UNSPECIFIED.,.F.,.F.,(2,
2),(-3.,-0.988976543230996),.UNSPECIFIED.);
#373=B_SPLINE_CURVE_WITH_KNOTS('',1,(#792,#793),.UNSPECIFIED.,.F.,.F.,(2,
2),(17.9971753394704,21.9971753394705),.UNSPECIFIED.);
#374=B_SPLINE_CURVE_WITH_KNOTS('',1,(#794,#795),.UNSPECIFIED.,.F.,.F.,(2,
2),(-9.01102345676899,-7.),.UNSPECIFIED.);
#375=B_SPLINE_CURVE_WITH_KNOTS('',1,(#796,#797),.UNSPECIFIED.,.F.,.F.,(2,
2),(-20.3958849031497,-15.3895319416613),.UNSPECIFIED.);
#376=B_SPLINE_CURVE_WITH_KNOTS('',1,(#798,#799),.UNSPECIFIED.,.F.,.F.,(2,
2),(15.3895319416613,20.3958849031497),.UNSPECIFIED.);
#377=B_SPLINE_CURVE_WITH_KNOTS('',1,(#800,#801),.UNSPECIFIED.,.F.,.F.,(2,
2),(75.2343224022843,86.2343224022842),.UNSPECIFIED.);
#378=B_SPLINE_CURVE_WITH_KNOTS('',1,(#802,#803),.UNSPECIFIED.,.F.,.F.,(2,
2),(21.9971753394704,93.2314977417547),.UNSPECIFIED.);
#379=B_SPLINE_CURVE_WITH_KNOTS('',1,(#804,#805),.UNSPECIFIED.,.F.,.F.,(2,
2),(15.3895319416613,20.3958849031497),.UNSPECIFIED.);
#380=B_SPLINE_CURVE_WITH_KNOTS('',1,(#806,#807),.UNSPECIFIED.,.F.,.F.,(2,
2),(15.3895319416613,20.3958849031497),.UNSPECIFIED.);
#381=B_SPLINE_CURVE_WITH_KNOTS('',1,(#810,#811),.UNSPECIFIED.,.F.,.F.,(2,
2),(-9.51080003453031,-4.50444707304195),.UNSPECIFIED.);
#382=B_SPLINE_CURVE_WITH_KNOTS('',1,(#812,#813),.UNSPECIFIED.,.F.,.F.,(2,
2),(-25.8745315092025,-14.7442319165463),.UNSPECIFIED.);
#383=B_SPLINE_CURVE_WITH_KNOTS('',1,(#820,#821),.UNSPECIFIED.,.F.,.F.,(2,
2),(-3.42044147700188,7.70985811565436),.UNSPECIFIED.);
#384=VERTEX_POINT('',#633);
#385=VERTEX_POINT('',#634);
#386=VERTEX_POINT('',#635);
#387=VERTEX_POINT('',#636);
#388=VERTEX_POINT('',#637);
#389=VERTEX_POINT('',#638);
#390=VERTEX_POINT('',#639);
#391=VERTEX_POINT('',#640);
#392=VERTEX_POINT('',#641);
#393=VERTEX_POINT('',#642);
#394=VERTEX_POINT('',#643);
#395=VERTEX_POINT('',#644);
#396=VERTEX_POINT('',#645);
#397=VERTEX_POINT('',#646);
#398=VERTEX_POINT('',#647);
#399=VERTEX_POINT('',#648);
#400=VERTEX_POINT('',#649);
#401=VERTEX_POINT('',#650);
#402=VERTEX_POINT('',#651);
#403=VERTEX_POINT('',#652);
#404=VERTEX_POINT('',#653);
#405=VERTEX_POINT('',#654);
#406=VERTEX_POINT('',#655);
#407=VERTEX_POINT('',#656);
#408=VERTEX_POINT('',#657);
#409=VERTEX_POINT('',#658);
#410=VERTEX_POINT('',#659);
#411=VERTEX_POINT('',#660);
#412=VERTEX_POINT('',#661);
#413=VERTEX_POINT('',#662);
#414=VERTEX_POINT('',#663);
#415=VERTEX_POINT('',#664);
#416=VERTEX_POINT('',#665);
#417=VERTEX_POINT('',#666);
#418=VERTEX_POINT('',#667);
#419=VERTEX_POINT('',#668);
#420=VERTEX_POINT('',#669);
#421=VERTEX_POINT('',#670);
#422=VERTEX_POINT('',#671);
#423=VERTEX_POINT('',#672);
#424=VERTEX_POINT('',#673);
#425=VERTEX_POINT('',#674);
#426=VERTEX_POINT('',#675);
#427=VERTEX_POINT('',#676);
#428=VERTEX_POINT('',#677);
#429=VERTEX_POINT('',#678);
#430=VERTEX_POINT('',#679);
#431=VERTEX_POINT('',#680);
#432=CYLINDRICAL_SURFACE('',#557,1.5);
#433=CYLINDRICAL_SURFACE('',#558,1.5);
#434=PLANE('',#545);
#435=PLANE('',#546);
#436=PLANE('',#547);
#437=PLANE('',#548);
#438=PLANE('',#549);
#439=PLANE('',#550);
#440=PLANE('',#551);
#441=PLANE('',#552);
#442=PLANE('',#553);
#443=PLANE('',#554);
#444=PLANE('',#555);
#445=PLANE('',#556);
#446=PLANE('',#559);
#447=PLANE('',#560);
#448=PLANE('',#561);
#449=PLANE('',#562);
#450=PLANE('',#563);
#451=PLANE('',#564);
#452=PLANE('',#565);
#453=PLANE('',#566);
#454=PLANE('',#567);
#455=PLANE('',#568);
#456=(
BOUNDED_SURFACE()
B_SPLINE_SURFACE(2,1,((#599,#600),(#601,#602),(#603,#604),(#605,#606),(#607,
#608)),.UNSPECIFIED.,.F.,.F.,.F.)
B_SPLINE_SURFACE_WITH_KNOTS((3,2,3),(2,2),(0.,11.7809724509617,23.5619449019234),
(0.,14.4390544243192),.UNSPECIFIED.)
GEOMETRIC_REPRESENTATION_ITEM()
RATIONAL_B_SPLINE_SURFACE(((1.,1.),(0.707106781186548,0.707106781186548),
(1.,1.),(0.707106781186548,0.707106781186548),(1.,1.)))
REPRESENTATION_ITEM('')
SURFACE()
);
#457=SHAPE_DEFINITION_REPRESENTATION(#458,#543);
#458=PRODUCT_DEFINITION_SHAPE('Document','',#460);
#459=PRODUCT_DEFINITION_CONTEXT('3D Mechanical Parts',#532,'design');
#460=PRODUCT_DEFINITION('A','First version',#502,#459);
#461=DATE_TIME_ROLE('classification_date');
#462=DATE_TIME_ROLE('creation_date');
#463=APPLIED_DATE_AND_TIME_ASSIGNMENT(#487,#461,(#466));
#464=APPLIED_DATE_AND_TIME_ASSIGNMENT(#489,#462,(#460));
#465=SECURITY_CLASSIFICATION_LEVEL('unclassified');
#466=SECURITY_CLASSIFICATION('A','Security for version',#465);
#467=APPLIED_SECURITY_CLASSIFICATION_ASSIGNMENT(#466,(#502));
#468=APPROVAL_ROLE('Version approval');
#469=APPROVAL_ROLE('Version Security approval');
#470=APPROVAL_ROLE('Definition approval');
#471=APPROVAL_PERSON_ORGANIZATION(#520,#496,#468);
#472=APPROVAL_PERSON_ORGANIZATION(#521,#497,#469);
#473=APPROVAL_PERSON_ORGANIZATION(#524,#498,#470);
#474=COORDINATED_UNIVERSAL_TIME_OFFSET(5,0,.BEHIND.);
#475=LOCAL_TIME(0,0,0.,#474);
#476=LOCAL_TIME(0,0,0.,#474);
#477=LOCAL_TIME(0,0,0.,#474);
#478=LOCAL_TIME(0,0,0.,#474);
#479=LOCAL_TIME(0,0,0.,#474);
#480=CALENDAR_DATE(1999,1,1);
#481=CALENDAR_DATE(1999,1,1);
#482=CALENDAR_DATE(1999,1,1);
#483=CALENDAR_DATE(1999,1,1);
#484=CALENDAR_DATE(1999,1,1);
#485=DATE_AND_TIME(#480,#475);
#486=DATE_AND_TIME(#481,#476);
#487=DATE_AND_TIME(#482,#477);
#488=DATE_AND_TIME(#483,#478);
#489=DATE_AND_TIME(#484,#479);
#490=APPROVAL_DATE_TIME(#485,#496);
#491=APPROVAL_DATE_TIME(#486,#497);
#492=APPROVAL_DATE_TIME(#488,#498);
#493=APPROVAL_STATUS('not_yet_approved');
#494=APPROVAL_STATUS('not_yet_approved');
#495=APPROVAL_STATUS('approved');
#496=APPROVAL(#493,'Version approval');
#497=APPROVAL(#494,'Version Security approval');
#498=APPROVAL(#495,'Definition approval');
#499=APPLIED_APPROVAL_ASSIGNMENT(#496,(#502));
#500=APPLIED_APPROVAL_ASSIGNMENT(#497,(#466));
#501=APPLIED_APPROVAL_ASSIGNMENT(#498,(#460));
#502=PRODUCT_DEFINITION_FORMATION_WITH_SPECIFIED_SOURCE('A',
'First version',#534,.MADE.);
#503=PERSON_AND_ORGANIZATION_ROLE('design_owner');
#504=PERSON_AND_ORGANIZATION_ROLE('creator');
#505=PERSON_AND_ORGANIZATION_ROLE('design_supplier');
#506=PERSON_AND_ORGANIZATION_ROLE('classification_officer');
#507=PERSON_AND_ORGANIZATION_ROLE('creator');
#508=ORGANIZATION('STI','lab','lab');
#509=ORGANIZATION('STI','unknown','unknown');
#510=ORGANIZATION('STI','unknown','unknown');
#511=ORGANIZATION('STI','unknown','unknown');
#512=ORGANIZATION('STI','unknown','unknown');
#513=ORGANIZATION('STI','unknown','unknown');
#514=ORGANIZATION('STI','unknown','unknown');
#515=PERSON('1','Box','vc60',$,$,$);
#516=PERSON('2','last','first',$,$,$);
#517=PERSON('3','President','Mr.',$,$,$);
#518=PERSON_AND_ORGANIZATION(#515,#508);
#519=PERSON_AND_ORGANIZATION(#516,#509);
#520=PERSON_AND_ORGANIZATION(#517,#510);
#521=PERSON_AND_ORGANIZATION(#517,#511);
#522=PERSON_AND_ORGANIZATION(#517,#512);
#523=PERSON_AND_ORGANIZATION(#516,#513);
#524=PERSON_AND_ORGANIZATION(#517,#514);
#525=APPLIED_PERSON_AND_ORGANIZATION_ASSIGNMENT(#518,#503,(#534));
#526=APPLIED_PERSON_AND_ORGANIZATION_ASSIGNMENT(#519,#504,(#502));
#527=APPLIED_PERSON_AND_ORGANIZATION_ASSIGNMENT(#519,#505,(#502));
#528=APPLIED_PERSON_AND_ORGANIZATION_ASSIGNMENT(#522,#506,(#466));
#529=APPLIED_PERSON_AND_ORGANIZATION_ASSIGNMENT(#523,#507,(#460));
#530=PRODUCT_RELATED_PRODUCT_CATEGORY('detail','detail',(#534));
#531=APPLICATION_PROTOCOL_DEFINITION('International Standard',
'config_control_design',1994,#532);
#532=APPLICATION_CONTEXT(
'configuration controlled 3d designs of mechanical parts and assemblie
s');
#533=PRODUCT_CONTEXT('3D Mechanical Parts',#532,'mechanical');
#534=PRODUCT('Document','Document','',(#533));
#535=(
LENGTH_UNIT()
NAMED_UNIT(*)
SI_UNIT(.MILLI.,.METRE.)
);
#536=(
NAMED_UNIT(*)
PLANE_ANGLE_UNIT()
SI_UNIT($,.RADIAN.)
);
#537=DIMENSIONAL_EXPONENTS(0.,0.,0.,0.,0.,0.,0.);
#538=PLANE_ANGLE_MEASURE_WITH_UNIT(PLANE_ANGLE_MEASURE(0.01745329252),#536);
#539=(
CONVERSION_BASED_UNIT('DEGREES',#538)
NAMED_UNIT(#537)
PLANE_ANGLE_UNIT()
);
#540=(
NAMED_UNIT(*)
SI_UNIT($,.STERADIAN.)
SOLID_ANGLE_UNIT()
);
#541=UNCERTAINTY_MEASURE_WITH_UNIT(LENGTH_MEASURE(0.001),#535,
'DISTANCE_ACCURACY_VALUE',
'Maximum model space distance between geometric entities at asserted c
onnectivities');
#542=(
GEOMETRIC_REPRESENTATION_CONTEXT(3)
GLOBAL_UNCERTAINTY_ASSIGNED_CONTEXT((#541))
GLOBAL_UNIT_ASSIGNED_CONTEXT((#540,#539,#535))
REPRESENTATION_CONTEXT('ID1','3D')
);
#543=SHAPE_REPRESENTATION('Document',(#544,#569),#542);
#544=AXIS2_PLACEMENT_3D('',#598,#570,#571);
#545=AXIS2_PLACEMENT_3D('',#609,#572,$);
#546=AXIS2_PLACEMENT_3D('',#610,#573,$);
#547=AXIS2_PLACEMENT_3D('',#611,#574,$);
#548=AXIS2_PLACEMENT_3D('',#612,#575,$);
#549=AXIS2_PLACEMENT_3D('',#613,#576,$);
#550=AXIS2_PLACEMENT_3D('',#614,#577,$);
#551=AXIS2_PLACEMENT_3D('',#615,#578,$);
#552=AXIS2_PLACEMENT_3D('',#616,#579,$);
#553=AXIS2_PLACEMENT_3D('',#617,#580,$);
#554=AXIS2_PLACEMENT_3D('',#618,#581,$);
#555=AXIS2_PLACEMENT_3D('',#619,#582,$);
#556=AXIS2_PLACEMENT_3D('',#620,#583,$);
#557=AXIS2_PLACEMENT_3D('',#621,#584,$);
#558=AXIS2_PLACEMENT_3D('',#622,#585,$);
#559=AXIS2_PLACEMENT_3D('',#623,#586,$);
#560=AXIS2_PLACEMENT_3D('',#624,#587,$);
#561=AXIS2_PLACEMENT_3D('',#625,#588,$);
#562=AXIS2_PLACEMENT_3D('',#626,#589,$);
#563=AXIS2_PLACEMENT_3D('',#627,#590,$);
#564=AXIS2_PLACEMENT_3D('',#628,#591,$);
#565=AXIS2_PLACEMENT_3D('',#629,#592,$);
#566=AXIS2_PLACEMENT_3D('',#630,#593,$);
#567=AXIS2_PLACEMENT_3D('',#631,#594,$);
#568=AXIS2_PLACEMENT_3D('',#632,#595,$);
#569=AXIS2_PLACEMENT_3D('',#846,#596,#597);
#570=DIRECTION('',(0.,0.,1.));
#571=DIRECTION('',(1.,0.,0.));
#572=DIRECTION('',(0.,0.,1.));
#573=DIRECTION('',(0.,0.,-1.));
#574=DIRECTION('',(1.,0.,0.));
#575=DIRECTION('',(0.,0.,1.));
#576=DIRECTION('',(-1.,0.,0.));
#577=DIRECTION('',(0.,0.,-1.));
#578=DIRECTION('',(0.,0.,1.));
#579=DIRECTION('',(0.,0.,-1.));
#580=DIRECTION('',(1.,0.,0.));
#581=DIRECTION('',(0.,0.,1.));
#582=DIRECTION('',(-1.,0.,0.));
#583=DIRECTION('',(0.,0.,-1.));
#584=DIRECTION('',(0.,-1.,0.));
#585=DIRECTION('',(0.,-1.,0.));
#586=DIRECTION('',(0.,0.,1.));
#587=DIRECTION('',(0.998803220649678,0.,0.0489093694483033));
#588=DIRECTION('',(-1.,0.,0.));
#589=DIRECTION('',(0.998803220649678,0.,0.0489093694483033));
#590=DIRECTION('',(-1.,0.,0.));
#591=DIRECTION('',(0.998803220649678,0.,0.0489093694483033));
#592=DIRECTION('',(-1.,0.,0.));
#593=DIRECTION('',(0.,-1.,0.));
#594=DIRECTION('',(0.,1.,0.));
#595=DIRECTION('',(0.,0.,-1.));
#596=DIRECTION('',(0.,0.,1.));
#597=DIRECTION('',(1.,0.,0.));
#598=CARTESIAN_POINT('',(0.,0.,0.));
#599=CARTESIAN_POINT('',(116.55616205254,-99.2819638974714,2.46753091630275));
#600=CARTESIAN_POINT('',(116.55616205254,-84.8429094731522,2.46753091630275));
#601=CARTESIAN_POINT('',(116.791234214766,-99.2819638974714,-5.03246908369725));
#602=CARTESIAN_POINT('',(116.791234214766,-84.8429094731522,-5.03246908369725));
#603=CARTESIAN_POINT('',(109.291234214766,-99.2819638974714,-5.03246908369725));
#604=CARTESIAN_POINT('',(109.291234214766,-84.8429094731522,-5.03246908369725));
#605=CARTESIAN_POINT('',(101.791234214766,-99.2819638974714,-5.03246908369725));
#606=CARTESIAN_POINT('',(101.791234214766,-84.8429094731522,-5.03246908369725));
#607=CARTESIAN_POINT('',(101.875371421847,-99.2819638974714,2.46753091630275));
#608=CARTESIAN_POINT('',(101.875371421847,-84.8429094731522,2.46753091630275));
#609=CARTESIAN_POINT('',(110.170352781462,-75.4656375173198,87.9703555768327));
#610=CARTESIAN_POINT('',(113.170352781462,-75.4656375173198,91.9703555768327));
#611=CARTESIAN_POINT('',(110.170352781462,-75.4656375173198,91.9703555768327));
#612=CARTESIAN_POINT('',(100.91394655963,-75.4656375173198,87.9703555768327));
#613=CARTESIAN_POINT('',(103.91394655963,-75.4656375173198,87.9703555768327));
#614=CARTESIAN_POINT('',(103.91394655963,-75.4656375173198,91.9703555768327));
#615=CARTESIAN_POINT('',(110.170352781462,-75.4656375173198,72.9703555768327));
#616=CARTESIAN_POINT('',(113.170352781462,-75.4656375173198,76.9703555768327));
#617=CARTESIAN_POINT('',(110.170352781462,-75.4656375173198,76.9703555768327));
#618=CARTESIAN_POINT('',(100.91394655963,-75.4656375173198,72.9703555768327));
#619=CARTESIAN_POINT('',(103.91394655963,-75.4656375173198,72.9703555768327));
#620=CARTESIAN_POINT('',(103.91394655963,-75.4656375173198,76.9703555768327));
#621=CARTESIAN_POINT('',(109.215766737194,-93.1979941805856,2.46753091630274));
#622=CARTESIAN_POINT('',(109.215766737194,-93.1979941805856,2.46753091630274));
#623=CARTESIAN_POINT('',(100.880602835937,-96.3741577166183,94.9675309163032));
#624=CARTESIAN_POINT('',(117.012809501654,-90.3425341628322,-7.27651537293798));
#625=CARTESIAN_POINT('',(101.902923102861,-90.3425341628322,-7.59911659962702));
#626=CARTESIAN_POINT('',(117.012809501654,-90.3425341628322,-7.27651537293798));
#627=CARTESIAN_POINT('',(101.902923102861,-90.3425341628322,-7.59911659962702));
#628=CARTESIAN_POINT('',(117.012809501654,-90.3425341628322,-7.27651537293798));
#629=CARTESIAN_POINT('',(101.902923102861,-90.3425341628322,-7.59911659962702));
#630=CARTESIAN_POINT('',(99.4559912889356,-95.8615224204695,94.9076202704283));
#631=CARTESIAN_POINT('',(101.756381359678,-90.8551694589811,-6.03246908369726));
#632=CARTESIAN_POINT('',(103.700601878051,-90.8551694589811,-2.5));
#633=CARTESIAN_POINT('',(112.006125772102,-90.8551694589811,94.9675309163032));
#634=CARTESIAN_POINT('',(101.902923102861,-90.8551694589811,94.9675309163032));
#635=CARTESIAN_POINT('',(101.902923102861,-95.8615224204695,94.9675309163032));
#636=CARTESIAN_POINT('',(112.006125772102,-95.8615224204695,94.9675309163032));
#637=CARTESIAN_POINT('',(116.557097421198,-90.8551694589811,2.02981383927635));
#638=CARTESIAN_POINT('',(116.557097421198,-95.8615224204695,2.02981383927634));
#639=CARTESIAN_POINT('',(101.902923102861,-95.8615224204695,1.73603317454844));
#640=CARTESIAN_POINT('',(101.902923102861,-90.8551694589811,1.73603317454845));
#641=CARTESIAN_POINT('',(112.348763267354,-90.8551694589811,87.9703555768327));
#642=CARTESIAN_POINT('',(112.348763267354,-95.8615224204695,87.9703555768327));
#643=CARTESIAN_POINT('',(112.152891374123,-95.8615224204695,91.9703555768327));
#644=CARTESIAN_POINT('',(112.152891374123,-90.8551694589811,91.9703555768327));
#645=CARTESIAN_POINT('',(110.170352781462,-95.8615224204695,87.9703555768327));
#646=CARTESIAN_POINT('',(110.170352781462,-95.8615224204695,91.9703555768327));
#647=CARTESIAN_POINT('',(110.170352781462,-90.8551694589811,87.9703555768327));
#648=CARTESIAN_POINT('',(110.170352781462,-90.8551694589811,91.9703555768327));
#649=CARTESIAN_POINT('',(101.902923102861,-95.8615224204695,87.9703555768327));
#650=CARTESIAN_POINT('',(101.902923102861,-90.8551694589811,87.9703555768327));
#651=CARTESIAN_POINT('',(101.902923102861,-90.8551694589811,91.9703555768327));
#652=CARTESIAN_POINT('',(101.902923102861,-95.8615224204695,91.9703555768327));
#653=CARTESIAN_POINT('',(103.91394655963,-95.8615224204695,87.9703555768327));
#654=CARTESIAN_POINT('',(103.91394655963,-95.8615224204695,91.9703555768327));
#655=CARTESIAN_POINT('',(103.91394655963,-90.8551694589811,87.9703555768327));
#656=CARTESIAN_POINT('',(103.91394655963,-90.8551694589811,91.9703555768327));
#657=CARTESIAN_POINT('',(113.083282866968,-95.8615224204695,72.9703555768327));
#658=CARTESIAN_POINT('',(110.170352781462,-95.8615224204695,72.9703555768327));
#659=CARTESIAN_POINT('',(110.170352781462,-95.8615224204695,76.9703555768327));
#660=CARTESIAN_POINT('',(112.887410973737,-95.8615224204695,76.9703555768327));
#661=CARTESIAN_POINT('',(113.083282866968,-90.8551694589811,72.9703555768327));
#662=CARTESIAN_POINT('',(110.170352781462,-90.8551694589811,72.9703555768327));
#663=CARTESIAN_POINT('',(110.170352781462,-90.8551694589811,76.9703555768327));
#664=CARTESIAN_POINT('',(112.887410973737,-90.8551694589811,76.9703555768327));
#665=CARTESIAN_POINT('',(103.91394655963,-95.8615224204695,72.9703555768327));
#666=CARTESIAN_POINT('',(101.902923102861,-95.8615224204695,72.9703555768327));
#667=CARTESIAN_POINT('',(103.91394655963,-95.8615224204695,76.9703555768327));
#668=CARTESIAN_POINT('',(101.902923102861,-95.8615224204695,76.9703555768327));
#669=CARTESIAN_POINT('',(103.91394655963,-90.8551694589811,72.9703555768327));
#670=CARTESIAN_POINT('',(101.902923102861,-90.8551694589811,72.9703555768327));
#671=CARTESIAN_POINT('',(103.91394655963,-90.8551694589811,76.9703555768327));
#672=CARTESIAN_POINT('',(101.902923102861,-90.8551694589811,76.9703555768327));
#673=CARTESIAN_POINT('',(114.830901470474,-95.8615224204695,-2.5));
#674=CARTESIAN_POINT('',(103.700601878051,-95.8615224204694,-2.5));
#675=CARTESIAN_POINT('',(114.830901470474,-90.8551694589811,-2.5));
#676=CARTESIAN_POINT('',(103.700601878051,-90.8551694589811,-2.5));
#677=CARTESIAN_POINT('',(110.715766737194,-95.8615224204695,2.46753091630275));
#678=CARTESIAN_POINT('',(110.715766737194,-90.8551694589811,2.46753091630276));
#679=CARTESIAN_POINT('',(107.715766737194,-90.8551694589811,2.46753091630275));
#680=CARTESIAN_POINT('',(107.715766737194,-95.8615224204694,2.46753091630275));
#681=CARTESIAN_POINT('',(101.902923102861,-90.8551694589811,94.9675309163032));
#682=CARTESIAN_POINT('',(101.902923102861,-95.8615224204695,94.9675309163032));
#683=CARTESIAN_POINT('',(101.902923102861,-95.8615224204695,94.9675309163032));
#684=CARTESIAN_POINT('',(112.006125772102,-95.8615224204695,94.9675309163032));
#685=CARTESIAN_POINT('',(112.006125772102,-95.8615224204695,94.9675309163032));
#686=CARTESIAN_POINT('',(112.006125772102,-90.8551694589811,94.9675309163032));
#687=CARTESIAN_POINT('',(112.006125772102,-95.8615224204695,94.9675309163032));
#688=CARTESIAN_POINT('',(112.152891374123,-95.8615224204695,91.9703555768327));
#689=CARTESIAN_POINT('',(116.557097421198,-95.8615224204695,2.02981383927634));
#690=CARTESIAN_POINT('',(116.557097421198,-90.8551694589811,2.02981383927635));
#691=CARTESIAN_POINT('',(101.902923102861,-95.8615224204695,1.73603317454844));
#692=CARTESIAN_POINT('',(101.902923102861,-95.8615224204695,72.9703555768327));
#693=CARTESIAN_POINT('',(101.902923102861,-90.8551694589811,1.73603317454845));
#694=CARTESIAN_POINT('',(101.902923102861,-95.8615224204695,1.73603317454844));
#695=CARTESIAN_POINT('',(101.902923102861,-90.8551694589811,1.73603317454845));
#696=CARTESIAN_POINT('',(102.112651780328,-90.8551694589811,-0.680697690269787));
#697=CARTESIAN_POINT('',(103.700601878051,-90.8551694589811,-2.5));
#698=CARTESIAN_POINT('',(101.902923102861,-95.8615224204695,1.73603317454844));
#699=CARTESIAN_POINT('',(102.112651780328,-95.8615224204695,-0.680697690269786));
#700=CARTESIAN_POINT('',(103.700601878051,-95.8615224204694,-2.5));
#701=CARTESIAN_POINT('',(112.348763267354,-90.8551694589811,87.9703555768327));
#702=CARTESIAN_POINT('',(112.348763267354,-95.8615224204695,87.9703555768327));
#703=CARTESIAN_POINT('',(112.152891374123,-95.8615224204695,91.9703555768327));
#704=CARTESIAN_POINT('',(112.152891374123,-90.8551694589811,91.9703555768327));
#705=CARTESIAN_POINT('',(112.348763267354,-95.8615224204695,87.9703555768327));
#706=CARTESIAN_POINT('',(110.170352781462,-95.8615224204695,87.9703555768327));
#707=CARTESIAN_POINT('',(110.170352781462,-95.8615224204695,91.9703555768327));
#708=CARTESIAN_POINT('',(112.152891374123,-95.8615224204695,91.9703555768327));
#709=CARTESIAN_POINT('',(110.170352781462,-95.8615224204695,87.9703555768327));
#710=CARTESIAN_POINT('',(110.170352781462,-95.8615224204695,91.9703555768327));
#711=CARTESIAN_POINT('',(112.348763267354,-90.8551694589811,87.9703555768327));
#712=CARTESIAN_POINT('',(110.170352781462,-90.8551694589811,87.9703555768327));
#713=CARTESIAN_POINT('',(110.170352781462,-90.8551694589811,91.9703555768327));
#714=CARTESIAN_POINT('',(112.152891374123,-90.8551694589811,91.9703555768327));
#715=CARTESIAN_POINT('',(110.170352781462,-90.8551694589811,87.9703555768327));
#716=CARTESIAN_POINT('',(110.170352781462,-90.8551694589811,91.9703555768327));
#717=CARTESIAN_POINT('',(112.152891374123,-90.8551694589811,91.9703555768327));
#718=CARTESIAN_POINT('',(112.006125772102,-90.8551694589811,94.9675309163032));
#719=CARTESIAN_POINT('',(112.348763267354,-95.8615224204695,87.9703555768327));
#720=CARTESIAN_POINT('',(112.887410973737,-95.8615224204695,76.9703555768327));
#721=CARTESIAN_POINT('',(110.170352781462,-90.8551694589811,87.9703555768327));
#722=CARTESIAN_POINT('',(110.170352781462,-95.8615224204695,87.9703555768327));
#723=CARTESIAN_POINT('',(110.170352781462,-90.8551694589811,91.9703555768327));
#724=CARTESIAN_POINT('',(110.170352781462,-95.8615224204695,91.9703555768327));
#725=CARTESIAN_POINT('',(112.006125772102,-90.8551694589811,94.9675309163032));
#726=CARTESIAN_POINT('',(109.45639562447,-90.8551694589811,94.9675309163032));
#727=CARTESIAN_POINT('',(104.45639562447,-90.8551694589811,94.9675309163032));
#728=CARTESIAN_POINT('',(101.902923102861,-90.8551694589811,94.9675309163032));
#729=CARTESIAN_POINT('',(116.557097421198,-90.8551694589811,2.02981383927635));
#730=CARTESIAN_POINT('',(113.083282866968,-90.8551694589811,72.9703555768327));
#731=CARTESIAN_POINT('',(101.902923102861,-90.8551694589811,94.9675309163032));
#732=CARTESIAN_POINT('',(101.902923102861,-90.8551694589811,91.9703555768327));
#733=CARTESIAN_POINT('',(101.902923102861,-95.8615224204695,87.9703555768327));
#734=CARTESIAN_POINT('',(101.902923102861,-90.8551694589811,87.9703555768327));
#735=CARTESIAN_POINT('',(101.902923102861,-90.8551694589811,91.9703555768327));
#736=CARTESIAN_POINT('',(101.902923102861,-95.8615224204695,91.9703555768327));
#737=CARTESIAN_POINT('',(103.91394655963,-95.8615224204695,87.9703555768327));
#738=CARTESIAN_POINT('',(101.902923102861,-95.8615224204695,87.9703555768327));
#739=CARTESIAN_POINT('',(103.91394655963,-95.8615224204695,91.9703555768327));
#740=CARTESIAN_POINT('',(103.91394655963,-95.8615224204695,87.9703555768327));
#741=CARTESIAN_POINT('',(101.902923102861,-95.8615224204695,91.9703555768327));
#742=CARTESIAN_POINT('',(103.91394655963,-95.8615224204695,91.9703555768327));
#743=CARTESIAN_POINT('',(103.91394655963,-90.8551694589811,87.9703555768327));
#744=CARTESIAN_POINT('',(101.902923102861,-90.8551694589811,87.9703555768327));
#745=CARTESIAN_POINT('',(103.91394655963,-90.8551694589811,91.9703555768327));
#746=CARTESIAN_POINT('',(103.91394655963,-90.8551694589811,87.9703555768327));
#747=CARTESIAN_POINT('',(101.902923102861,-90.8551694589811,91.9703555768327));
#748=CARTESIAN_POINT('',(103.91394655963,-90.8551694589811,91.9703555768327));
#749=CARTESIAN_POINT('',(101.902923102861,-95.8615224204695,91.9703555768327));
#750=CARTESIAN_POINT('',(101.902923102861,-95.8615224204695,94.9675309163032));
#751=CARTESIAN_POINT('',(101.902923102861,-90.8551694589811,87.9703555768327));
#752=CARTESIAN_POINT('',(101.902923102861,-90.8551694589811,85.3501115106901));
#753=CARTESIAN_POINT('',(101.902923102861,-90.8551694589811,81.7326921050771));
#754=CARTESIAN_POINT('',(101.902923102861,-90.8551694589811,76.9703555768327));
#755=CARTESIAN_POINT('',(103.91394655963,-90.8551694589811,87.9703555768327));
#756=CARTESIAN_POINT('',(103.91394655963,-95.8615224204695,87.9703555768327));
#757=CARTESIAN_POINT('',(103.91394655963,-90.8551694589811,91.9703555768327));
#758=CARTESIAN_POINT('',(103.91394655963,-95.8615224204695,91.9703555768327));
#759=CARTESIAN_POINT('',(113.083282866968,-95.8615224204695,72.9703555768327));
#760=CARTESIAN_POINT('',(110.170352781462,-95.8615224204695,72.9703555768327));
#761=CARTESIAN_POINT('',(110.170352781462,-95.8615224204695,76.9703555768327));
#762=CARTESIAN_POINT('',(112.887410973737,-95.8615224204695,76.9703555768327));
#763=CARTESIAN_POINT('',(110.170352781462,-95.8615224204695,72.9703555768327));
#764=CARTESIAN_POINT('',(110.170352781462,-95.8615224204695,76.9703555768327));
#765=CARTESIAN_POINT('',(113.083282866968,-90.8551694589811,72.9703555768327));
#766=CARTESIAN_POINT('',(110.170352781462,-90.8551694589811,72.9703555768327));
#767=CARTESIAN_POINT('',(110.170352781462,-90.8551694589811,76.9703555768327));
#768=CARTESIAN_POINT('',(112.887410973737,-90.8551694589811,76.9703555768327));
#769=CARTESIAN_POINT('',(110.170352781462,-90.8551694589811,72.9703555768327));
#770=CARTESIAN_POINT('',(110.170352781462,-90.8551694589811,76.9703555768327));
#771=CARTESIAN_POINT('',(113.083282866968,-90.8551694589811,72.9703555768327));
#772=CARTESIAN_POINT('',(113.083282866968,-95.8615224204695,72.9703555768327));
#773=CARTESIAN_POINT('',(112.887410973737,-95.8615224204695,76.9703555768327));
#774=CARTESIAN_POINT('',(112.887410973737,-90.8551694589811,76.9703555768327));
#775=CARTESIAN_POINT('',(113.083282866968,-95.8615224204695,72.9703555768327));
#776=CARTESIAN_POINT('',(116.557097421198,-95.8615224204695,2.02981383927634));
#777=CARTESIAN_POINT('',(112.887410973737,-90.8551694589811,76.9703555768327));
#778=CARTESIAN_POINT('',(112.653433393109,-90.8551694589811,81.7485312868712));
#779=CARTESIAN_POINT('',(112.348763267354,-90.8551694589811,87.9703555768327));
#780=CARTESIAN_POINT('',(110.170352781462,-90.8551694589811,72.9703555768327));
#781=CARTESIAN_POINT('',(110.170352781462,-95.8615224204695,72.9703555768327));
#782=CARTESIAN_POINT('',(110.170352781462,-90.8551694589811,76.9703555768327));
#783=CARTESIAN_POINT('',(110.170352781462,-95.8615224204695,76.9703555768327));
#784=CARTESIAN_POINT('',(103.91394655963,-95.8615224204695,72.9703555768327));
#785=CARTESIAN_POINT('',(101.902923102861,-95.8615224204695,72.9703555768327));
#786=CARTESIAN_POINT('',(103.91394655963,-95.8615224204695,76.9703555768327));
#787=CARTESIAN_POINT('',(103.91394655963,-95.8615224204695,72.9703555768327));
#788=CARTESIAN_POINT('',(101.902923102861,-95.8615224204695,76.9703555768327));
#789=CARTESIAN_POINT('',(103.91394655963,-95.8615224204695,76.9703555768327));
#790=CARTESIAN_POINT('',(103.91394655963,-90.8551694589811,72.9703555768327));
#791=CARTESIAN_POINT('',(101.902923102861,-90.8551694589811,72.9703555768327));
#792=CARTESIAN_POINT('',(103.91394655963,-90.8551694589811,76.9703555768327));
#793=CARTESIAN_POINT('',(103.91394655963,-90.8551694589811,72.9703555768327));
#794=CARTESIAN_POINT('',(101.902923102861,-90.8551694589811,76.9703555768327));
#795=CARTESIAN_POINT('',(103.91394655963,-90.8551694589811,76.9703555768327));
#796=CARTESIAN_POINT('',(101.902923102861,-95.8615224204695,72.9703555768327));
#797=CARTESIAN_POINT('',(101.902923102861,-90.8551694589811,72.9703555768327));
#798=CARTESIAN_POINT('',(101.902923102861,-90.8551694589811,76.9703555768327));
#799=CARTESIAN_POINT('',(101.902923102861,-95.8615224204695,76.9703555768327));
#800=CARTESIAN_POINT('',(101.902923102861,-95.8615224204695,76.9703555768327));
#801=CARTESIAN_POINT('',(101.902923102861,-95.8615224204695,87.9703555768327));
#802=CARTESIAN_POINT('',(101.902923102861,-90.8551694589811,72.9703555768327));
#803=CARTESIAN_POINT('',(101.902923102861,-90.8551694589811,1.73603317454845));
#804=CARTESIAN_POINT('',(103.91394655963,-90.8551694589811,72.9703555768327));
#805=CARTESIAN_POINT('',(103.91394655963,-95.8615224204695,72.9703555768327));
#806=CARTESIAN_POINT('',(103.91394655963,-90.8551694589811,76.9703555768327));
#807=CARTESIAN_POINT('',(103.91394655963,-95.8615224204695,76.9703555768327));
#808=CARTESIAN_POINT('',(114.830901470474,-90.8551694589811,-2.5));
#809=CARTESIAN_POINT('',(114.830901470474,-95.8615224204695,-2.5));
#810=CARTESIAN_POINT('',(103.700601878051,-95.8615224204694,-2.5));
#811=CARTESIAN_POINT('',(103.700601878051,-90.8551694589811,-2.5));
#812=CARTESIAN_POINT('',(114.830901470474,-90.8551694589811,-2.5));
#813=CARTESIAN_POINT('',(103.700601878051,-90.8551694589811,-2.5));
#814=CARTESIAN_POINT('',(114.830901470474,-90.8551694589811,-2.5));
#815=CARTESIAN_POINT('',(116.486920353422,-90.855169458981,-0.557934232581621));
#816=CARTESIAN_POINT('',(116.557097421198,-90.8551694589811,2.02981383927635));
#817=CARTESIAN_POINT('',(114.830901470474,-95.8615224204695,-2.5));
#818=CARTESIAN_POINT('',(116.486920353422,-95.8615224204695,-0.557934232581625));
#819=CARTESIAN_POINT('',(116.557097421198,-95.8615224204695,2.02981383927634));
#820=CARTESIAN_POINT('',(114.830901470474,-95.8615224204695,-2.5));
#821=CARTESIAN_POINT('',(103.700601878051,-95.8615224204694,-2.5));
#822=CARTESIAN_POINT('',(110.715766737194,-95.8615224204694,2.46753091630275));
#823=CARTESIAN_POINT('',(110.715766737194,-95.8615224204694,0.967530916302749));
#824=CARTESIAN_POINT('',(109.215766737194,-95.8615224204694,0.967530916302749));
#825=CARTESIAN_POINT('',(107.715766737194,-95.8615224204694,0.967530916302749));
#826=CARTESIAN_POINT('',(107.715766737194,-95.8615224204694,2.46753091630275));
#827=CARTESIAN_POINT('',(110.715766737194,-90.8551694589811,2.46753091630275));
#828=CARTESIAN_POINT('',(110.715766737194,-90.8551694589811,0.967530916302749));
#829=CARTESIAN_POINT('',(109.215766737194,-90.8551694589811,0.967530916302749));
#830=CARTESIAN_POINT('',(107.715766737194,-90.8551694589811,0.967530916302749));
#831=CARTESIAN_POINT('',(107.715766737194,-90.8551694589811,2.46753091630275));
#832=CARTESIAN_POINT('',(110.715766737194,-90.8551694589811,2.46753091630276));
#833=CARTESIAN_POINT('',(110.715766737194,-95.8615224204695,2.46753091630275));
#834=CARTESIAN_POINT('',(107.715766737194,-90.8551694589811,2.46753091630275));
#835=CARTESIAN_POINT('',(107.715766737194,-95.8615224204695,2.46753091630275));
#836=CARTESIAN_POINT('',(107.715766737194,-95.8615224204694,2.46753091630275));
#837=CARTESIAN_POINT('',(107.715766737194,-95.8615224204694,3.96753091630275));
#838=CARTESIAN_POINT('',(109.215766737194,-95.8615224204694,3.96753091630275));
#839=CARTESIAN_POINT('',(110.715766737194,-95.8615224204694,3.96753091630275));
#840=CARTESIAN_POINT('',(110.715766737194,-95.8615224204694,2.46753091630275));
#841=CARTESIAN_POINT('',(107.715766737194,-90.8551694589811,2.46753091630275));
#842=CARTESIAN_POINT('',(107.715766737194,-90.8551694589811,3.96753091630275));
#843=CARTESIAN_POINT('',(109.215766737194,-90.8551694589811,3.96753091630275));
#844=CARTESIAN_POINT('',(110.715766737194,-90.8551694589811,3.96753091630275));
#845=CARTESIAN_POINT('',(110.715766737194,-90.8551694589811,2.46753091630275));
#846=CARTESIAN_POINT('',(0.,0.,0.));
ENDSEC;
END-ISO-10303-21;
